<svg width="40" height="40" fill="none" xmlns="http://www.w3.org/2000/svg">
  <path d="M20 27.06a1.18 1.18 0 0 1-1.18-1.18c0-4.53-3.7-8.23-8.23-8.23a1.18 1.18 0 0 1-1.18-1.18 1.18 1.18 0 0 1 1.18-1.18 10.58 10.58 0 0 1 10.59 10.6A1.18 1.18 0 0 1 20 27.05Z" fill="#BC9CFF"/>
  <path d="M30.59 16.47a1.18 1.18 0 0 1-1.18 1.18 8.21 8.21 0 0 0-6.76 3.56 12.04 12.04 0 0 0-1.18-2.3 10.49 10.49 0 0 1 7.94-3.62c.65 0 1.18.53 1.18 1.18Z" fill="#6FCF97"/>
  <path d="M20 40C8.97 40 0 31.03 0 20S8.97 0 20 0s20 8.97 20 20-8.97 20-20 20Zm0-37.65C10.27 2.35 2.35 10.27 2.35 20S10.27 37.65 20 37.65 37.65 29.74 37.65 20 29.74 2.35 20 2.35Z" fill="#BC9CFF"/>
</svg>
